<svg xmlns="http://www.w3.org/2000/svg" viewBox="0 0 200 200" width="100%" height="100%">
  <g fill="none" stroke-linecap="round" stroke-linejoin="round">
    <path d="M60 140 L60 60 C60 30 80 20 110 20 C150 20 170 40 170 70 C170 100 150 120 110 120 L90 120 L90 150" stroke="#5b6676" stroke-width="8"/>
    <path d="M72 145 L72 70 C72 45 88 32 110 32 C142 32 158 50 158 75 C158 100 142 112 110 112 L102 112 L102 155" stroke="#93a0b3" stroke-width="8"/>
    <path d="M84 150 L84 80 C84 60 96 44 110 44 C134 44 146 60 146 80 C146 100 134 104 110 104 L110 160" stroke="#d7deea" stroke-width="8"/>
  </g>

  <g stroke="#00e5ff" stroke-width="1.5">
    <line x1="85" y1="55" x2="125" y2="75"/>
    <line x1="125" y1="75" x2="160" y2="65"/>
    <line x1="125" y1="75" x2="140" y2="115"/>
    <line x1="125" y1="75" x2="85" y2="105"/>
  </g>

  <g fill="#4dabf5">
    <circle cx="85" cy="55" r="3.5"/>
    <circle cx="160" cy="65" r="3.5"/>
    <circle cx="140" cy="115" r="3.5"/>
    <circle cx="85" cy="105" r="3.5"/>
  </g>

  <circle cx="125" cy="75" r="8" fill="#00e5ff" filter="drop-shadow(0px 0px 4px #00e5ff)"/>
</svg>
